<?xml version="1.0" encoding="UTF-8"?> <!-- Generator: Adobe Illustrator 21.1.0, SVG Export Plug-In . SVG Version: 6.00 Build 0) --> <svg xmlns="http://www.w3.org/2000/svg" xmlns:xlink="http://www.w3.org/1999/xlink" id="Layer_1" x="0px" y="0px" viewBox="0 0 100.8 100.8" style="enable-background:new 0 0 100.8 100.8;" xml:space="preserve"> <style type="text/css"> .st0{fill:#162E70;} </style> <path class="st0" d="M81.2,20.8C81.2,20.8,81.1,20.7,81.2,20.8l-5.9-5.1v-4.4c0-0.8-0.7-1.5-1.5-1.5s-1.5,0.7-1.5,1.5v10.4 c0,0.8,0.7,1.5,1.5,1.5s1.5-0.7,1.5-1.5v-2l3.8,3.3c4.1,4.2,4.9,10.6,1.9,15.6l-7.8,12.8l-0.4-0.6c-0.3-0.4-0.8-0.7-1.3-0.7 c0,0,0,0,0,0c-0.5,0-1,0.3-1.3,0.7c-1.1,1.8-3.6,3.4-5.4,3.4c-1.9,0-4.8-1.7-5.8-3.4c-0.3-0.4-0.8-0.7-1.3-0.7c-0.5,0-1,0.3-1.3,0.7 l-0.3,0.4l-7.5-12.6c-3-5.1-2.2-11.5,1.9-15.6l3.6-3.2V22c0,0.8,0.7,1.5,1.5,1.5s1.5-0.7,1.5-1.5V11.7c0-0.8-0.7-1.5-1.5-1.5 s-1.5,0.7-1.5,1.5v4l-5.6,5.1c-5.1,5.1-6.1,13.1-2.4,19.3l8.3,14l-0.8,1.2c-0.3,0.5-0.3,1.1,0,1.6c1.9,3.2,5.9,5.7,9.7,6.3v7 c0,0.1,0,0.1,0,0.2C63.3,81.9,54.6,91.2,44,91.2c-10.7,0-19.4-9.4-19.4-21c0-0.1,0-0.1,0-0.2V40.5c3.2-0.8,5.6-3.7,5.6-7.1 c0-4-3.3-7.3-7.3-7.3c-4.1,0-7.3,3.3-7.3,7.3c0,3.6,2.6,6.6,6.1,7.2v29.8c0,0.1,0,0.2,0,0.2c0.2,13,10.2,23.5,22.4,23.5 c12.3,0,22.4-10.8,22.4-24c0-0.1,0-0.1,0-0.2v-6.8c3.6-0.6,7.3-3,9.3-6.3c0.3-0.5,0.3-1.1,0-1.6L75,54.2l8.6-14.1 C87.3,33.9,86.3,25.9,81.2,20.8z M18.5,33.4c0-2.4,2-4.3,4.3-4.3c2.4,0,4.3,1.9,4.3,4.3s-1.9,4.3-4.3,4.3 C20.5,37.7,18.5,35.8,18.5,33.4z M64.9,60.3C64.9,60.3,64.9,60.3,64.9,60.3C64.9,60.3,64.9,60.3,64.9,60.3c-2.8,0-6.2-1.9-8.1-4.2 l1.2-1.9c1.9,1.8,4.6,3,6.9,3c2.4,0,4.8-1.4,6.5-3l1.2,1.9C70.8,58.5,67.5,60.3,64.9,60.3z"></path> </svg> 